<?xml version="1.0" standalone="no"?>
<!DOCTYPE svg PUBLIC "-//W3C//DTD SVG 20010904//EN"
 "http://www.w3.org/TR/2001/REC-SVG-20010904/DTD/svg10.dtd">
<svg version="1.0" xmlns="http://www.w3.org/2000/svg"
 width="22.000000pt" height="22.000000pt" viewBox="0 0 22.000000 22.000000"
 preserveAspectRatio="xMidYMid meet">

<g transform="translate(0.000000,22.000000) scale(0.100000,-0.100000)"
fill="#000000" stroke="none">
<path d="M86 158 c-26 -24 -37 -44 -42 -77 l-7 -44 44 7 c33 5 53 16 77 42 31
32 32 37 20 56 -8 12 -24 28 -36 36 -19 12 -24 11 -56 -20z m66 -5 c23 -21 23
-36 -3 -59 -15 -13 -24 -16 -36 -8 -32 20 -38 41 -19 63 23 25 34 26 58 4z
m-62 -68 l23 -25 -26 0 c-22 0 -27 5 -27 25 0 14 1 25 3 25 2 0 14 -11 27 -25z"/>
</g>
</svg>
